<svg xmlns="http://www.w3.org/2000/svg" viewBox="0 0 620 258" width="100%" font-family="Inter, 'Helvetica Neue', Helvetica, Arial, sans-serif" role="img" class="viz">
<text x="259.8" y="22" fill="var(--viz-ink)" font-size="12" font-weight="500" text-anchor="middle">ida4</text>
<text x="489.2" y="22" fill="var(--viz-ink)" font-size="12" font-weight="500" text-anchor="middle">cpc1-1</text>
<text x="133" y="54.0" fill="var(--viz-muted)" font-size="12" text-anchor="end">Torin2</text>
<g><title>Torin2 on ida4: recovered</title><rect x="147.0" y="34.0" width="225.5" height="28" rx="5" fill="var(--viz-1)"/><text x="259.8" y="53.0" fill="#fff" font-size="10.5" text-anchor="middle">recovered</text></g>
<g><title>Torin2 on cpc1-1: recovered</title><rect x="376.5" y="34.0" width="225.5" height="28" rx="5" fill="var(--viz-1)"/><text x="489.2" y="53.0" fill="#fff" font-size="10.5" text-anchor="middle">recovered</text></g>
<text x="133" y="88.0" fill="var(--viz-muted)" font-size="12" text-anchor="end">TAK-063</text>
<g><title>TAK-063 on ida4: no change</title><rect x="147.0" y="68.0" width="225.5" height="28" rx="5" fill="var(--viz-mid)"/><text x="259.8" y="87.0" fill="var(--viz-on-mid)" font-size="10.5" text-anchor="middle">no change</text></g>
<g><title>TAK-063 on cpc1-1: recovered</title><rect x="376.5" y="68.0" width="225.5" height="28" rx="5" fill="var(--viz-1)"/><text x="489.2" y="87.0" fill="#fff" font-size="10.5" text-anchor="middle">recovered</text></g>
<text x="133" y="122.0" fill="var(--viz-muted)" font-size="12" text-anchor="end">Linsitinib</text>
<g><title>Linsitinib on ida4: worse</title><rect x="147.0" y="102.0" width="225.5" height="28" rx="5" fill="var(--viz-neg)"/><text x="259.8" y="121.0" fill="#fff" font-size="10.5" text-anchor="middle">worse</text></g>
<g><title>Linsitinib on cpc1-1: recovered</title><rect x="376.5" y="102.0" width="225.5" height="28" rx="5" fill="var(--viz-1)"/><text x="489.2" y="121.0" fill="#fff" font-size="10.5" text-anchor="middle">recovered</text></g>
<text x="133" y="156.0" fill="var(--viz-muted)" font-size="12" text-anchor="end">Ibudilast</text>
<g><title>Ibudilast on ida4: worse</title><rect x="147.0" y="136.0" width="225.5" height="28" rx="5" fill="var(--viz-neg)"/><text x="259.8" y="155.0" fill="#fff" font-size="10.5" text-anchor="middle">worse</text></g>
<g><title>Ibudilast on cpc1-1: recovered</title><rect x="376.5" y="136.0" width="225.5" height="28" rx="5" fill="var(--viz-1)"/><text x="489.2" y="155.0" fill="#fff" font-size="10.5" text-anchor="middle">recovered</text></g>
<text x="133" y="190.0" fill="var(--viz-muted)" font-size="12" text-anchor="end">Dynarrestin</text>
<g><title>Dynarrestin on ida4: no change</title><rect x="147.0" y="170.0" width="225.5" height="28" rx="5" fill="var(--viz-mid)"/><text x="259.8" y="189.0" fill="var(--viz-on-mid)" font-size="10.5" text-anchor="middle">no change</text></g>
<g><title>Dynarrestin on cpc1-1: recovered</title><rect x="376.5" y="170.0" width="225.5" height="28" rx="5" fill="var(--viz-1)"/><text x="489.2" y="189.0" fill="#fff" font-size="10.5" text-anchor="middle">recovered</text></g>
<text x="133" y="224.0" fill="var(--viz-muted)" font-size="12" text-anchor="end">ATP</text>
<g><title>ATP on ida4: no change</title><rect x="147.0" y="204.0" width="225.5" height="28" rx="5" fill="var(--viz-mid)"/><text x="259.8" y="223.0" fill="var(--viz-on-mid)" font-size="10.5" text-anchor="middle">no change</text></g>
<g><title>ATP on cpc1-1: recovered</title><rect x="376.5" y="204.0" width="225.5" height="28" rx="5" fill="var(--viz-1)"/><text x="489.2" y="223.0" fill="#fff" font-size="10.5" text-anchor="middle">recovered</text></g>
<rect x="145.0" y="243" width="10" height="10" rx="3" fill="var(--viz-1)"/>
<text x="161.0" y="252" fill="var(--viz-muted)" font-size="11">recovered</text>
<rect x="232.6" y="243" width="10" height="10" rx="3" fill="var(--viz-mid)"/>
<text x="248.6" y="252" fill="var(--viz-muted)" font-size="11">no change</text>
<rect x="320.2" y="243" width="10" height="10" rx="3" fill="var(--viz-neg)"/>
<text x="336.2" y="252" fill="var(--viz-muted)" font-size="11">worse</text>
</svg>